<svg width="38" height="80" viewBox="0 0 38 80" fill="none" xmlns="http://www.w3.org/2000/svg">
<path d="M18.8375 -8.23414e-07C18.1225 -8.54671e-07 17.4367 0.350343 16.931 0.973959C16.4254 1.59757 16.1413 2.44338 16.1413 3.3253L16.1413 68.4547L4.56928 54.1825C4.06077 53.5768 3.3797 53.2416 2.67277 53.2492C1.96584 53.2568 1.28959 53.6065 0.789701 54.223C0.289804 54.8395 0.00624986 55.6736 0.000108155 56.5455C-0.00603355 57.4173 0.265725 58.2573 0.75686 58.8845L16.934 78.8363C17.1821 79.144 17.477 79.3882 17.8018 79.5548C18.1266 79.7215 18.4749 79.8073 18.8267 79.8073L18.8375 79.8073C19.188 79.8073 19.5385 79.7208 19.8675 79.5479C20.1943 79.3822 20.4913 79.138 20.741 78.8297L36.9182 58.8778C37.4093 58.2507 37.6811 57.4107 37.6749 56.5388C37.6688 55.6669 37.3852 54.8329 36.8854 54.2164C36.3855 53.5998 35.7092 53.2501 35.0023 53.2425C34.2953 53.235 33.6143 53.5701 33.1058 54.1759L21.5337 68.4547L21.5337 3.3253C21.5337 2.44338 21.2497 1.59757 20.744 0.973959C20.2384 0.350343 19.5526 -7.92157e-07 18.8375 -8.23414e-07Z" fill="white"/>
</svg>
